<?xml version='1.0' encoding='utf-8'?>
<svg xmlns="http://www.w3.org/2000/svg" xmlns:dc="http://purl.org/dc/elements/1.1/" xmlns:ns2="http://creativecommons.org/ns#" xmlns:rdf="http://www.w3.org/1999/02/22-rdf-syntax-ns#" version="1.1" width="282" height="75" id="Monero-Logo">
  <metadata id="metadata8">
    <rdf:RDF>
      <ns2:Work rdf:about="">
        <dc:format>image/svg+xml</dc:format>
        <dc:type rdf:resource="http://purl.org/dc/dcmitype/StillImage"/>
        <dc:title/>
      </ns2:Work>
    </rdf:RDF>
  </metadata>
  <defs id="defs6"/>
  <circle cx="37.3000" cy="37.2553" r="36.9020" fill="#ffffff"/><g transform="translate(37.3000 37.2553) scale(0.014658192651) translate(-2998.00 -2993.00)"><path d="M 624.00 3795.00 L 599.00 3724.00 L 581.00 3696.00 L 579.00 3652.00 L 573.00 3644.00 L 577.00 3632.00 L 563.00 3612.00 L 555.00 3566.00 L 545.00 3558.00 L 549.00 3530.00 L 539.00 3518.00 L 539.00 3496.00 L 531.00 3488.00 L 529.00 3446.00 L 521.00 3434.00 L 521.00 3404.00 L 511.00 3372.00 L 515.00 3356.00 L 507.00 3344.00 L 509.00 3324.00 L 501.00 3316.00 L 491.00 3242.00 L 487.00 3144.00 L 493.00 3138.00 L 481.00 3116.00 L 481.00 2888.00 L 483.00 2850.00 L 493.00 2844.00 L 491.00 2730.00 L 505.00 2670.00 L 505.00 2630.00 L 513.00 2622.00 L 511.00 2604.00 L 519.00 2596.00 L 525.00 2512.00 L 537.00 2496.00 L 535.00 2484.00 L 545.00 2466.00 L 541.00 2428.00 L 559.00 2398.00 L 555.00 2380.00 L 565.00 2368.00 L 561.00 2354.00 L 575.00 2336.00 L 579.00 2292.00 L 591.00 2282.00 L 597.00 2244.00 L 617.00 2208.00 L 615.00 2176.00 L 631.00 2154.00 L 631.00 2132.00 L 645.00 2116.00 L 649.00 2090.00 L 661.00 2072.00 L 663.00 2048.00 L 691.00 2000.00 L 691.00 1984.00 L 705.00 1970.00 L 705.00 1956.00 L 721.00 1932.00 L 719.00 1922.00 L 733.00 1910.00 L 737.00 1886.00 L 749.00 1878.00 L 749.00 1864.00 L 761.00 1856.00 L 769.00 1826.00 L 781.00 1818.00 L 781.00 1804.00 L 791.00 1796.00 L 807.00 1756.00 L 847.00 1700.00 L 845.00 1688.00 L 861.00 1678.00 L 863.00 1664.00 L 887.00 1640.00 L 889.00 1624.00 L 937.00 1564.00 L 937.00 1550.00 L 965.00 1528.00 L 975.00 1500.00 L 1015.00 1454.00 L 1015.00 1444.00 L 1057.00 1404.00 L 1059.00 1390.00 L 1099.00 1354.00 L 1101.00 1340.00 L 1139.00 1310.00 L 1139.00 1298.00 L 1197.00 1242.00 L 1199.00 1232.00 L 1338.00 1103.00 L 1350.00 1099.00 L 1446.00 1013.00 L 1502.00 977.00 L 1510.00 963.00 L 1524.00 961.00 L 1578.00 917.00 L 1592.00 915.00 L 1602.00 899.00 L 1628.00 889.00 L 1660.00 863.00 L 1666.00 865.00 L 1696.00 839.00 L 1710.00 839.00 L 1720.00 825.00 L 1782.00 795.00 L 1794.00 783.00 L 1812.00 781.00 L 1818.00 769.00 L 1830.00 769.00 L 1884.00 737.00 L 1918.00 727.00 L 1930.00 713.00 L 1956.00 709.00 L 1970.00 697.00 L 1982.00 699.00 L 2010.00 675.00 L 2024.00 679.00 L 2034.00 669.00 L 2046.00 671.00 L 2056.00 661.00 L 2066.00 661.00 L 2074.00 653.00 L 2088.00 655.00 L 2138.00 627.00 L 2156.00 629.00 L 2166.00 615.00 L 2206.00 615.00 L 2218.00 603.00 L 2252.00 597.00 L 2262.00 585.00 L 2272.00 591.00 L 2282.00 583.00 L 2302.00 585.00 L 2332.00 569.00 L 2348.00 571.00 L 2358.00 561.00 L 2376.00 561.00 L 2386.00 553.00 L 2414.00 555.00 L 2446.00 539.00 L 2466.00 541.00 L 2480.00 533.00 L 2504.00 533.00 L 2514.00 525.00 L 2542.00 529.00 L 2558.00 521.00 L 2582.00 521.00 L 2594.00 513.00 L 2646.00 511.00 L 2656.00 503.00 L 2708.00 503.00 L 2716.00 495.00 L 2830.00 495.00 L 2838.00 487.00 L 3130.00 487.00 L 3134.00 495.00 L 3150.00 497.00 L 3162.00 489.00 L 3168.00 495.00 L 3272.00 493.00 L 3284.00 503.00 L 3340.00 503.00 L 3362.00 513.00 L 3402.00 513.00 L 3410.00 521.00 L 3478.00 525.00 L 3488.00 533.00 L 3562.00 545.00 L 3572.00 553.00 L 3630.00 559.00 L 3642.00 569.00 L 3664.00 569.00 L 3694.00 585.00 L 3736.00 585.00 L 3744.00 597.00 L 3754.00 595.00 L 3782.00 605.00 L 3792.00 615.00 L 3816.00 621.00 L 3828.00 617.00 L 3838.00 627.00 L 3858.00 627.00 L 3912.00 657.00 L 3964.00 669.00 L 3994.00 689.00 L 4002.00 687.00 L 4014.00 699.00 L 4046.00 705.00 L 4054.00 715.00 L 4066.00 715.00 L 4096.00 737.00 L 4106.00 735.00 L 4144.00 761.00 L 4180.00 773.00 L 4216.00 801.00 L 4238.00 805.00 L 4246.00 817.00 L 4266.00 821.00 L 4278.00 837.00 L 4312.00 847.00 L 4324.00 863.00 L 4336.00 865.00 L 4378.00 899.00 L 4388.00 899.00 L 4414.00 915.00 L 4434.00 937.00 L 4450.00 939.00 L 4536.00 1011.00 L 4548.00 1013.00 L 4602.00 1063.00 L 4636.00 1083.00 L 4652.00 1105.00 L 4660.00 1105.00 L 4704.00 1153.00 L 4718.00 1155.00 L 4767.00 1202.00 L 4792.00 1235.00 L 4849.00 1284.00 L 4849.00 1300.00 L 4933.00 1386.00 L 4943.00 1410.00 L 4979.00 1442.00 L 4979.00 1452.00 L 5027.00 1504.00 L 5037.00 1518.00 L 5039.00 1534.00 L 5065.00 1556.00 L 5077.00 1584.00 L 5089.00 1592.00 L 5089.00 1604.00 L 5111.00 1630.00 L 5113.00 1642.00 L 5151.00 1690.00 L 5157.00 1710.00 L 5175.00 1726.00 L 5173.00 1738.00 L 5187.00 1750.00 L 5197.00 1778.00 L 5209.00 1786.00 L 5207.00 1798.00 L 5219.00 1810.00 L 5219.00 1824.00 L 5229.00 1832.00 L 5239.00 1860.00 L 5247.00 1866.00 L 5243.00 1872.00 L 5269.00 1908.00 L 5269.00 1922.00 L 5285.00 1940.00 L 5285.00 1960.00 L 5323.00 2028.00 L 5321.00 2042.00 L 5331.00 2066.00 L 5341.00 2072.00 L 5339.00 2082.00 L 5355.00 2110.00 L 5355.00 2126.00 L 5367.00 2136.00 L 5367.00 2154.00 L 5377.00 2164.00 L 5385.00 2188.00 L 5383.00 2214.00 L 5403.00 2246.00 L 5399.00 2270.00 L 5411.00 2280.00 L 5425.00 2320.00 L 5421.00 2346.00 L 5429.00 2360.00 L 5429.00 2376.00 L 5437.00 2384.00 L 5437.00 2410.00 L 5445.00 2416.00 L 5453.00 2440.00 L 5449.00 2472.00 L 5459.00 2484.00 L 5457.00 2500.00 L 5465.00 2506.00 L 5465.00 2538.00 L 5473.00 2548.00 L 5471.00 2596.00 L 5481.00 2606.00 L 5479.00 2622.00 L 5487.00 2638.00 L 5479.00 2660.00 L 5489.00 2668.00 L 5495.00 2764.00 L 5503.00 2774.00 L 5503.00 2904.00 L 5511.00 2912.00 L 5503.00 2920.00 L 5511.00 2928.00 L 5511.00 3040.00 L 5503.00 3046.00 L 5505.00 3206.00 L 5495.00 3220.00 L 5495.00 3276.00 L 5485.00 3294.00 L 5489.00 3348.00 L 5479.00 3356.00 L 5477.00 3388.00 L 5469.00 3402.00 L 5473.00 3452.00 L 5461.00 3462.00 L 5459.00 3482.00 L 5451.00 3490.00 L 5449.00 3520.00 L 5443.00 3528.00 L 5447.00 3544.00 L 5437.00 3546.00 L 5441.00 3560.00 L 5429.00 3582.00 L 5429.00 3616.00 L 5413.00 3638.00 L 5413.00 3680.00 L 5385.00 3730.00 L 5389.00 3750.00 L 5371.00 3778.00 L 5371.00 3790.00 L 3916.00 3793.00 L 3899.00 3778.00 L 3831.00 3672.00 L 3565.00 3244.00 L 3584.00 3229.00 L 3670.00 3193.00 L 3764.00 3135.00 L 3836.00 3077.00 L 3901.00 3012.00 L 3959.00 2936.00 L 4019.00 2828.00 L 4049.00 2758.00 L 4079.00 2650.00 L 4093.00 2554.00 L 4097.00 2466.00 L 4093.00 2386.00 L 4079.00 2288.00 L 4041.00 2164.00 L 4003.00 2076.00 L 3957.00 1996.00 L 3887.00 1906.00 L 3800.00 1821.00 L 3682.00 1741.00 L 3538.00 1679.00 L 3352.00 1637.00 L 3216.00 1625.00 L 1980.00 1625.00 L 1973.00 1632.00 L 1971.00 1676.00 L 1971.00 3788.00 L 1964.00 3793.00 L 624.00 3795.00 Z M 3044.00 2819.00 L 2542.00 2819.00 L 2535.00 2814.00 L 2538.00 2099.00 L 3004.00 2097.00 L 3172.00 2113.00 L 3262.00 2137.00 L 3330.00 2169.00 L 3388.00 2209.00 L 3443.00 2272.00 L 3479.00 2340.00 L 3493.00 2386.00 L 3499.00 2436.00 L 3493.00 2534.00 L 3477.00 2590.00 L 3449.00 2646.00 L 3374.00 2727.00 L 3292.00 2773.00 L 3182.00 2805.00 L 3044.00 2819.00 Z" fill="#ff6600" fill-rule="evenodd"/><path d="M 3082.00 5507.00 L 2910.00 5507.00 L 2898.00 5493.00 L 2740.00 5495.00 L 2722.00 5483.00 L 2656.00 5485.00 L 2642.00 5475.00 L 2596.00 5477.00 L 2586.00 5467.00 L 2570.00 5469.00 L 2562.00 5461.00 L 2512.00 5463.00 L 2486.00 5447.00 L 2446.00 5447.00 L 2432.00 5435.00 L 2384.00 5433.00 L 2350.00 5415.00 L 2332.00 5421.00 L 2320.00 5409.00 L 2304.00 5409.00 L 2296.00 5401.00 L 2276.00 5409.00 L 2258.00 5401.00 L 2246.00 5387.00 L 2218.00 5387.00 L 2202.00 5373.00 L 2168.00 5373.00 L 2154.00 5359.00 L 2142.00 5361.00 L 2130.00 5349.00 L 2118.00 5353.00 L 2092.00 5333.00 L 2078.00 5335.00 L 2068.00 5325.00 L 2034.00 5321.00 L 2024.00 5311.00 L 2010.00 5311.00 L 2002.00 5299.00 L 1994.00 5301.00 L 1982.00 5291.00 L 1972.00 5295.00 L 1958.00 5281.00 L 1932.00 5275.00 L 1896.00 5249.00 L 1882.00 5251.00 L 1862.00 5231.00 L 1850.00 5233.00 L 1830.00 5219.00 L 1816.00 5219.00 L 1804.00 5203.00 L 1786.00 5205.00 L 1778.00 5191.00 L 1752.00 5177.00 L 1740.00 5177.00 L 1706.00 5147.00 L 1690.00 5137.00 L 1678.00 5137.00 L 1668.00 5123.00 L 1658.00 5125.00 L 1650.00 5109.00 L 1636.00 5109.00 L 1620.00 5089.00 L 1606.00 5091.00 L 1588.00 5071.00 L 1574.00 5071.00 L 1571.00 5062.00 L 1560.00 5051.00 L 1544.00 5047.00 L 1522.00 5019.00 L 1506.00 5019.00 L 1462.00 4977.00 L 1450.00 4975.00 L 1418.00 4939.00 L 1404.00 4939.00 L 1358.00 4889.00 L 1350.00 4889.00 L 1330.00 4867.00 L 1314.00 4861.00 L 1254.00 4795.00 L 1230.00 4781.00 L 1224.00 4771.00 L 1216.00 4771.00 L 1137.00 4674.00 L 1107.00 4648.00 L 1107.00 4640.00 L 1063.00 4598.00 L 1049.00 4572.00 L 1021.00 4550.00 L 1011.00 4530.00 L 971.00 4486.00 L 971.00 4474.00 L 961.00 4458.00 L 943.00 4452.00 L 941.00 4436.00 L 921.00 4418.00 L 919.00 4400.00 L 893.00 4376.00 L 881.00 4340.00 L 865.00 4328.00 L 851.00 4292.00 L 837.00 4280.00 L 825.00 4250.00 L 803.00 4224.00 L 806.00 4221.00 L 831.00 4248.00 L 833.00 4262.00 L 860.00 4297.00 L 2526.00 4295.00 L 2535.00 4288.00 L 2535.00 3270.00 L 2958.00 3265.00 L 2977.00 3268.00 L 3011.00 3318.00 L 3608.00 4293.00 L 5128.00 4297.00 L 5166.00 4255.00 L 5169.00 4258.00 L 5165.00 4272.00 L 5152.00 4277.00 L 5131.00 4306.00 L 5129.00 4322.00 L 5115.00 4330.00 L 5117.00 4348.00 L 5099.00 4362.00 L 5085.00 4390.00 L 5071.00 4402.00 L 5063.00 4428.00 L 5029.00 4464.00 L 5029.00 4480.00 L 5003.00 4506.00 L 5001.00 4518.00 L 4975.00 4538.00 L 4977.00 4550.00 L 4935.00 4586.00 L 4937.00 4596.00 L 4857.00 4678.00 L 4853.00 4692.00 L 4714.00 4835.00 L 4692.00 4845.00 L 4662.00 4881.00 L 4652.00 4879.00 L 4606.00 4927.00 L 4594.00 4937.00 L 4584.00 4937.00 L 4552.00 4973.00 L 4540.00 4973.00 L 4514.00 5001.00 L 4488.00 5021.00 L 4476.00 5023.00 L 4450.00 5051.00 L 4430.00 5053.00 L 4414.00 5077.00 L 4400.00 5077.00 L 4390.00 5093.00 L 4380.00 5093.00 L 4368.00 5107.00 L 4354.00 5109.00 L 4330.00 5133.00 L 4320.00 5129.00 L 4308.00 5143.00 L 4280.00 5153.00 L 4272.00 5167.00 L 4244.00 5175.00 L 4234.00 5189.00 L 4222.00 5189.00 L 4212.00 5205.00 L 4196.00 5201.00 L 4176.00 5221.00 L 4164.00 5217.00 L 4152.00 5233.00 L 4142.00 5231.00 L 4110.00 5251.00 L 4100.00 5251.00 L 4092.00 5263.00 L 4080.00 5259.00 L 4066.00 5275.00 L 4040.00 5281.00 L 4026.00 5297.00 L 4010.00 5293.00 L 4002.00 5305.00 L 3970.00 5311.00 L 3958.00 5325.00 L 3946.00 5321.00 L 3940.00 5327.00 L 3926.00 5327.00 L 3920.00 5335.00 L 3906.00 5333.00 L 3898.00 5345.00 L 3886.00 5341.00 L 3858.00 5361.00 L 3840.00 5359.00 L 3832.00 5371.00 L 3802.00 5371.00 L 3782.00 5387.00 L 3748.00 5389.00 L 3740.00 5401.00 L 3702.00 5401.00 L 3674.00 5417.00 L 3648.00 5415.00 L 3636.00 5425.00 L 3626.00 5423.00 L 3620.00 5433.00 L 3596.00 5429.00 L 3578.00 5439.00 L 3566.00 5437.00 L 3554.00 5451.00 L 3522.00 5447.00 L 3498.00 5459.00 L 3486.00 5455.00 L 3476.00 5465.00 L 3442.00 5461.00 L 3430.00 5469.00 L 3408.00 5469.00 L 3400.00 5477.00 L 3348.00 5475.00 L 3338.00 5485.00 L 3282.00 5483.00 L 3256.00 5497.00 L 3094.00 5495.00 L 3082.00 5507.00 Z M 5460.00 2485.00 L 5449.00 2472.00 L 5453.00 2440.00 L 5445.00 2416.00 L 5437.00 2410.00 L 5437.00 2384.00 L 5429.00 2376.00 L 5429.00 2360.00 L 5421.00 2346.00 L 5425.00 2320.00 L 5411.00 2280.00 L 5399.00 2270.00 L 5403.00 2246.00 L 5383.00 2214.00 L 5385.00 2188.00 L 5377.00 2164.00 L 5367.00 2154.00 L 5367.00 2136.00 L 5355.00 2126.00 L 5355.00 2110.00 L 5339.00 2082.00 L 5341.00 2072.00 L 5331.00 2066.00 L 5319.00 2036.00 L 5323.00 2028.00 L 5285.00 1960.00 L 5285.00 1940.00 L 5269.00 1922.00 L 5269.00 1908.00 L 5251.00 1884.00 L 5253.00 1870.00 L 5239.00 1860.00 L 5229.00 1832.00 L 5219.00 1824.00 L 5219.00 1810.00 L 5207.00 1798.00 L 5209.00 1786.00 L 5197.00 1778.00 L 5187.00 1750.00 L 5173.00 1738.00 L 5175.00 1726.00 L 5157.00 1710.00 L 5151.00 1690.00 L 5113.00 1642.00 L 5111.00 1630.00 L 5089.00 1604.00 L 5089.00 1592.00 L 5077.00 1584.00 L 5065.00 1556.00 L 5039.00 1534.00 L 5037.00 1518.00 L 5027.00 1504.00 L 4979.00 1452.00 L 4979.00 1442.00 L 4943.00 1410.00 L 4933.00 1386.00 L 4849.00 1300.00 L 4849.00 1284.00 L 4792.00 1235.00 L 4752.00 1187.00 L 4718.00 1155.00 L 4704.00 1153.00 L 4636.00 1083.00 L 4602.00 1063.00 L 4548.00 1013.00 L 4536.00 1011.00 L 4450.00 939.00 L 4434.00 937.00 L 4414.00 915.00 L 4388.00 899.00 L 4378.00 899.00 L 4366.00 885.00 L 4324.00 863.00 L 4312.00 847.00 L 4278.00 837.00 L 4266.00 821.00 L 4246.00 817.00 L 4230.00 801.00 L 4216.00 801.00 L 4180.00 773.00 L 4144.00 761.00 L 4106.00 735.00 L 4096.00 737.00 L 4066.00 715.00 L 4054.00 715.00 L 4046.00 705.00 L 4014.00 699.00 L 4002.00 687.00 L 3994.00 689.00 L 3964.00 669.00 L 3912.00 657.00 L 3858.00 627.00 L 3838.00 627.00 L 3828.00 617.00 L 3816.00 621.00 L 3792.00 615.00 L 3782.00 605.00 L 3754.00 595.00 L 3744.00 597.00 L 3736.00 585.00 L 3694.00 585.00 L 3682.00 575.00 L 3642.00 569.00 L 3630.00 559.00 L 3572.00 553.00 L 3562.00 545.00 L 3522.00 541.00 L 3512.00 533.00 L 3488.00 533.00 L 3477.00 524.00 L 3560.00 535.00 L 3618.00 553.00 L 3632.00 551.00 L 3650.00 563.00 L 3688.00 567.00 L 3700.00 579.00 L 3730.00 575.00 L 3764.00 595.00 L 3792.00 599.00 L 3802.00 609.00 L 3862.00 619.00 L 3890.00 639.00 L 3904.00 639.00 L 3950.00 663.00 L 3992.00 669.00 L 4018.00 693.00 L 4028.00 691.00 L 4038.00 699.00 L 4046.00 693.00 L 4060.00 707.00 L 4126.00 735.00 L 4132.00 745.00 L 4182.00 767.00 L 4190.00 777.00 L 4230.00 785.00 L 4234.00 797.00 L 4242.00 797.00 L 4252.00 809.00 L 4272.00 813.00 L 4328.00 855.00 L 4342.00 857.00 L 4350.00 867.00 L 4360.00 863.00 L 4361.00 878.00 L 4384.00 885.00 L 4400.00 903.00 L 4410.00 901.00 L 4442.00 921.00 L 4462.00 923.00 L 4467.00 944.00 L 4478.00 955.00 L 4486.00 955.00 L 4500.00 971.00 L 4510.00 971.00 L 4521.00 988.00 L 4538.00 999.00 L 4544.00 995.00 L 4544.00 1007.00 L 4564.00 1023.00 L 4580.00 1025.00 L 4600.00 1051.00 L 4610.00 1049.00 L 4612.00 1059.00 L 4654.00 1085.00 L 4696.00 1133.00 L 4752.00 1175.00 L 4803.00 1234.00 L 4845.00 1268.00 L 4867.00 1294.00 L 4865.00 1304.00 L 4895.00 1326.00 L 4897.00 1340.00 L 4925.00 1356.00 L 4939.00 1378.00 L 4939.00 1392.00 L 4949.00 1396.00 L 4950.00 1405.00 L 4965.00 1408.00 L 4963.00 1414.00 L 4985.00 1440.00 L 4985.00 1448.00 L 5007.00 1466.00 L 5020.00 1493.00 L 5033.00 1496.00 L 5043.00 1522.00 L 5065.00 1532.00 L 5077.00 1554.00 L 5073.00 1562.00 L 5093.00 1580.00 L 5097.00 1598.00 L 5113.00 1610.00 L 5111.00 1620.00 L 5119.00 1626.00 L 5119.00 1636.00 L 5143.00 1658.00 L 5143.00 1670.00 L 5151.00 1674.00 L 5163.00 1706.00 L 5187.00 1720.00 L 5187.00 1740.00 L 5205.00 1762.00 L 5201.00 1770.00 L 5212.00 1767.00 L 5217.00 1772.00 L 5217.00 1796.00 L 5225.00 1816.00 L 5247.00 1846.00 L 5245.00 1856.00 L 5271.00 1884.00 L 5267.00 1898.00 L 5275.00 1904.00 L 5277.00 1918.00 L 5305.00 1950.00 L 5307.00 1982.00 L 5315.00 1988.00 L 5313.00 2000.00 L 5329.00 2024.00 L 5327.00 2042.00 L 5337.00 2060.00 L 5353.00 2072.00 L 5349.00 2080.00 L 5357.00 2090.00 L 5355.00 2100.00 L 5363.00 2108.00 L 5363.00 2120.00 L 5375.00 2128.00 L 5373.00 2152.00 L 5385.00 2162.00 L 5389.00 2210.00 L 5399.00 2216.00 L 5399.00 2226.00 L 5409.00 2238.00 L 5407.00 2262.00 L 5417.00 2272.00 L 5417.00 2288.00 L 5433.00 2322.00 L 5435.00 2356.00 L 5443.00 2364.00 L 5443.00 2404.00 L 5461.00 2440.00 L 5460.00 2485.00 Z M 718.00 1923.00 L 715.00 1914.00 L 729.00 1902.00 L 731.00 1882.00 L 753.00 1854.00 L 751.00 1844.00 L 765.00 1814.00 L 785.00 1792.00 L 797.00 1752.00 L 819.00 1732.00 L 821.00 1714.00 L 837.00 1688.00 L 855.00 1672.00 L 857.00 1656.00 L 879.00 1632.00 L 883.00 1616.00 L 901.00 1600.00 L 901.00 1586.00 L 911.00 1580.00 L 905.00 1568.00 L 917.00 1564.00 L 921.00 1548.00 L 939.00 1534.00 L 936.00 1527.00 L 948.00 1525.00 L 951.00 1516.00 L 961.00 1512.00 L 979.00 1486.00 L 975.00 1480.00 L 1021.00 1432.00 L 1021.00 1422.00 L 1049.00 1400.00 L 1051.00 1384.00 L 1079.00 1360.00 L 1103.00 1322.00 L 1125.00 1308.00 L 1125.00 1298.00 L 1205.00 1222.00 L 1201.00 1218.00 L 1210.00 1217.00 L 1270.00 1153.00 L 1320.00 1113.00 L 1322.00 1101.00 L 1336.00 1097.00 L 1374.00 1061.00 L 1402.00 1045.00 L 1410.00 1031.00 L 1422.00 1029.00 L 1472.00 983.00 L 1496.00 971.00 L 1510.00 955.00 L 1518.00 955.00 L 1546.00 921.00 L 1568.00 915.00 L 1594.00 893.00 L 1602.00 895.00 L 1614.00 881.00 L 1628.00 881.00 L 1652.00 857.00 L 1664.00 855.00 L 1706.00 823.00 L 1724.00 819.00 L 1732.00 809.00 L 1790.00 777.00 L 1812.00 773.00 L 1812.00 781.00 L 1794.00 783.00 L 1782.00 795.00 L 1720.00 825.00 L 1710.00 839.00 L 1696.00 839.00 L 1666.00 865.00 L 1660.00 863.00 L 1628.00 889.00 L 1602.00 899.00 L 1592.00 915.00 L 1578.00 917.00 L 1524.00 961.00 L 1510.00 963.00 L 1502.00 977.00 L 1446.00 1013.00 L 1350.00 1099.00 L 1338.00 1103.00 L 1199.00 1232.00 L 1197.00 1242.00 L 1139.00 1298.00 L 1139.00 1310.00 L 1101.00 1340.00 L 1099.00 1354.00 L 1059.00 1390.00 L 1057.00 1404.00 L 1015.00 1444.00 L 1015.00 1454.00 L 975.00 1500.00 L 965.00 1528.00 L 937.00 1550.00 L 937.00 1564.00 L 889.00 1624.00 L 887.00 1640.00 L 863.00 1664.00 L 861.00 1678.00 L 845.00 1688.00 L 847.00 1700.00 L 807.00 1756.00 L 791.00 1796.00 L 781.00 1804.00 L 781.00 1818.00 L 769.00 1826.00 L 761.00 1856.00 L 749.00 1864.00 L 749.00 1878.00 L 737.00 1886.00 L 733.00 1910.00 L 718.00 1923.00 Z M 552.00 3577.00 L 537.00 3560.00 L 537.00 3536.00 L 531.00 3530.00 L 535.00 3502.00 L 523.00 3492.00 L 511.00 3402.00 L 505.00 3394.00 L 509.00 3382.00 L 499.00 3370.00 L 503.00 3330.00 L 493.00 3322.00 L 489.00 3308.00 L 483.00 3154.00 L 475.00 3142.00 L 475.00 2838.00 L 485.00 2828.00 L 483.00 2728.00 L 489.00 2714.00 L 489.00 2678.00 L 497.00 2666.00 L 499.00 2624.00 L 505.00 2618.00 L 503.00 2590.00 L 511.00 2582.00 L 511.00 2544.00 L 522.00 2515.00 L 525.00 2556.00 L 519.00 2564.00 L 519.00 2596.00 L 511.00 2604.00 L 513.00 2622.00 L 505.00 2630.00 L 505.00 2670.00 L 491.00 2730.00 L 491.00 2830.00 L 481.00 2838.00 L 481.00 3140.00 L 491.00 3152.00 L 491.00 3242.00 L 501.00 3316.00 L 509.00 3324.00 L 505.00 3364.00 L 515.00 3376.00 L 521.00 3404.00 L 531.00 3488.00 L 539.00 3496.00 L 539.00 3518.00 L 549.00 3530.00 L 545.00 3558.00 L 555.00 3566.00 L 552.00 3577.00 Z" fill="#4c4c4c" fill-rule="evenodd"/></g><path id="wordmark" d="M 8.05 0.00 L 8.05 72.30 L 32.95 72.30 Q 40.05 72.30 45.09 70.94 Q 50.16 69.59 53.38 67.09 Q 56.59 64.59 58.09 61.05 Q 59.59 57.50 59.59 53.05 Q 59.59 50.50 58.84 48.17 Q 58.09 45.84 56.52 43.81 Q 54.95 41.80 52.52 40.14 Q 50.09 38.50 46.75 37.34 Q 61.66 34.00 61.66 21.25 Q 61.66 16.66 59.91 12.75 Q 58.16 8.84 54.80 6.02 Q 51.45 3.20 46.55 1.59 Q 41.66 0.00 35.34 0.00 L 8.05 0.00 Z M 21.50 31.70 L 21.50 10.50 L 35.09 10.50 Q 38.84 10.50 41.39 11.39 Q 43.95 12.30 45.47 13.80 Q 47.00 15.30 47.67 17.30 Q 48.34 19.30 48.34 21.55 Q 48.34 23.91 47.59 25.78 Q 46.84 27.66 45.25 28.97 Q 43.66 30.30 41.12 31.00 Q 38.59 31.70 35.05 31.70 L 21.50 31.70 Z M 21.50 41.00 L 32.20 41.00 Q 39.09 41.00 42.62 43.50 Q 46.16 46.00 46.16 51.45 Q 46.16 57.09 42.95 59.50 Q 39.75 61.91 32.95 61.91 L 21.50 61.91 L 21.50 41.00 Z M 87.40 0.00 L 73.90 0.00 L 73.90 72.30 L 87.40 72.30 L 87.40 0.00 Z M 154.05 72.30 L 154.05 61.25 L 132.25 61.25 L 132.25 0.00 L 118.80 0.00 L 118.80 61.25 L 97.00 61.25 L 97.00 72.30 L 154.05 72.30 Z M 199.84 30.00 Q 200.70 28.41 201.42 26.67 Q 202.16 24.95 202.84 23.20 Q 203.55 25.05 204.30 26.77 Q 205.05 28.50 205.91 30.09 L 227.25 70.16 Q 227.66 70.91 228.09 71.34 Q 228.55 71.80 229.06 72.00 Q 229.59 72.20 230.25 72.25 Q 230.91 72.30 231.80 72.30 L 241.95 72.30 L 241.95 0.00 L 230.09 0.00 L 230.09 46.70 Q 230.09 48.00 230.17 49.55 Q 230.25 51.09 230.41 52.70 L 208.55 11.70 Q 207.00 8.75 203.80 8.75 L 201.91 8.75 Q 198.70 8.75 197.16 11.70 L 175.05 52.84 Q 175.20 51.20 175.30 49.62 Q 175.41 48.05 175.41 46.70 L 175.41 0.00 L 163.55 0.00 L 163.55 72.30 L 173.70 72.30 Q 174.59 72.30 175.25 72.25 Q 175.91 72.20 176.42 72.00 Q 176.95 71.80 177.38 71.34 Q 177.80 70.91 178.20 70.16 L 199.84 30.00 L 199.84 30.00 Z M 327.00 36.16 Q 327.00 28.20 324.38 21.42 Q 321.75 14.66 316.95 9.70 Q 312.16 4.75 305.41 1.97 Q 298.66 -0.80 290.41 -0.80 Q 282.20 -0.80 275.45 1.97 Q 268.70 4.75 263.88 9.70 Q 259.05 14.66 256.39 21.42 Q 253.75 28.20 253.75 36.16 Q 253.75 44.09 256.39 50.88 Q 259.05 57.66 263.88 62.59 Q 268.70 67.55 275.45 70.31 Q 282.20 73.09 290.41 73.09 Q 295.91 73.09 300.75 71.81 Q 305.59 70.55 309.64 68.22 Q 313.70 65.91 316.92 62.58 Q 320.16 59.25 322.41 55.14 Q 324.66 51.05 325.83 46.25 Q 327.00 41.45 327.00 36.16 Z M 313.25 36.16 Q 313.25 42.09 311.64 46.81 Q 310.05 51.55 307.09 54.84 Q 304.16 58.16 299.92 59.91 Q 295.70 61.66 290.41 61.66 Q 285.09 61.66 280.88 59.91 Q 276.66 58.16 273.67 54.84 Q 270.70 51.55 269.09 46.81 Q 267.50 42.09 267.50 36.16 Q 267.50 30.20 269.09 25.47 Q 270.70 20.75 273.67 17.47 Q 276.66 14.20 280.88 12.45 Q 285.09 10.70 290.41 10.70 Q 295.70 10.70 299.92 12.45 Q 304.16 14.20 307.09 17.47 Q 310.05 20.75 311.64 25.47 Q 313.25 30.20 313.25 36.16 Z M 345.89 72.30 Q 346.75 72.30 347.38 72.22 Q 348.00 72.16 348.47 71.92 Q 348.96 71.70 349.39 71.27 Q 349.85 70.84 350.39 70.16 L 388.30 21.75 Q 388.14 23.50 388.05 25.20 Q 387.96 26.91 387.96 28.34 L 387.96 72.30 L 399.80 72.30 L 399.80 0.00 L 392.89 0.00 Q 391.30 0.00 390.22 0.52 Q 389.14 1.05 388.14 2.30 L 350.39 50.45 Q 350.55 48.84 350.63 47.27 Q 350.71 45.70 350.71 44.41 L 350.71 0.00 L 338.85 0.00 L 338.85 72.30 L 345.89 72.30 L 345.89 72.30 Z M 461.51 72.30 L 461.51 61.59 L 429.40 61.59 L 429.40 41.55 L 454.69 41.55 L 454.69 31.20 L 429.40 31.20 L 429.40 10.75 L 461.51 10.75 L 461.51 0.00 L 415.90 0.00 L 415.90 72.30 L 461.51 72.30 Z M 486.85 28.25 L 486.85 0.00 L 473.40 0.00 L 473.40 72.30 L 495.44 72.30 Q 502.80 72.30 508.07 70.77 Q 513.35 69.25 516.73 66.50 Q 520.10 63.75 521.69 59.92 Q 523.30 56.09 523.30 51.50 Q 523.30 47.84 522.23 44.59 Q 521.15 41.34 519.12 38.69 Q 517.10 36.05 514.12 34.05 Q 511.15 32.05 507.35 30.84 Q 509.90 29.41 511.76 26.70 L 529.85 0.00 L 517.69 0.00 Q 514.26 0.00 512.69 2.70 L 497.51 25.84 Q 496.65 27.16 495.62 27.70 Q 494.60 28.25 492.60 28.25 L 486.85 28.25 Z M 486.85 37.91 L 495.26 37.91 Q 499.05 37.91 501.87 38.84 Q 504.69 39.80 506.52 41.47 Q 508.35 43.16 509.24 45.45 Q 510.15 47.75 510.15 50.50 Q 510.15 56.00 506.52 58.95 Q 502.90 61.91 495.44 61.91 L 486.85 61.91 L 486.85 37.91 Z M 605.65 36.16 Q 605.65 28.20 603.03 21.42 Q 600.40 14.66 595.60 9.70 Q 590.81 4.75 584.06 1.97 Q 577.31 -0.80 569.06 -0.80 Q 560.85 -0.80 554.10 1.97 Q 547.35 4.75 542.53 9.70 Q 537.70 14.66 535.04 21.42 Q 532.40 28.20 532.40 36.16 Q 532.40 44.09 535.04 50.88 Q 537.70 57.66 542.53 62.59 Q 547.35 67.55 554.10 70.31 Q 560.85 73.09 569.06 73.09 Q 574.56 73.09 579.40 71.81 Q 584.24 70.55 588.29 68.22 Q 592.35 65.91 595.57 62.58 Q 598.81 59.25 601.06 55.14 Q 603.31 51.05 604.48 46.25 Q 605.65 41.45 605.65 36.16 Z M 591.90 36.16 Q 591.90 42.09 590.29 46.81 Q 588.70 51.55 585.74 54.84 Q 582.81 58.16 578.57 59.91 Q 574.35 61.66 569.06 61.66 Q 563.74 61.66 559.53 59.91 Q 555.31 58.16 552.32 54.84 Q 549.35 51.55 547.74 46.81 Q 546.15 42.09 546.15 36.16 Q 546.15 30.20 547.74 25.47 Q 549.35 20.75 552.32 17.47 Q 555.31 14.20 559.53 12.45 Q 563.74 10.70 569.06 10.70 Q 574.35 10.70 578.57 12.45 Q 582.81 14.20 585.74 17.47 Q 588.70 20.75 590.29 25.47 Q 591.90 30.20 591.90 36.16 Z" style="fill:#4c4c4c;fill-rule:nonzero" transform="translate(87.153,51.654) scale(0.315112,-0.315112)"/></svg>
